<svg xmlns="http://www.w3.org/2000/svg" viewBox="0 0 652 304.27"><defs><style>.cls-1{fill:#0093c9;}</style></defs><g id="Layer_2" data-name="Layer 2"><g id="layer"><path class="cls-1" d="M.11,112.54H6.3v93c5.32-9,13.58-14,24.23-14,14.23,0,25.52,8.25,25.52,26.28v40.74H49.86V218.78c0-15.21-7.17-21.83-19.55-21.83-14.23,0-24.12,9.23-24.12,24.22v37.26H0V112.54ZM68.33,226c0,19.34,15,34.33,33.78,34.33s33.68-15,33.68-34.33-15-34.33-33.68-34.33-33.78,15-33.78,34.33m61.16,0c0,16.51-11.52,29-27.38,29s-27.37-12.61-27.37-29,11.51-29,27.37-29,27.38,12.49,27.38,29m20.31,32.7H156V56.27H149.8Zm25.75,0h6.19V219c0-14,7.82-21.84,20.31-21.84,10.65,0,17.06,6.63,17.06,19.34v42.15h6.19v-40.3c0-13.36,7.82-21.19,20.53-21.19,10.1,0,16.84,6.41,16.84,19.12v42.37h6.19V215.2c0-15.43-10.54-23.68-23-23.68-10.54,0-17.92,4.56-22.59,13.14-4.13-8.8-12.39-13.14-21.19-13.14-9.45,0-17.05,4.67-20.31,11.73V193.14h-6.19Zm140-3.69c-15.42,0-27.37-10.54-27.92-27.81h58.88c-.43-21-12.93-35.53-32.26-35.53-18.14,0-32.92,15-32.92,34.33s14.23,34.33,34.33,34.33c12.6,0,21.62-4.56,27.59-12.17l-4.13-3.69C333.93,250.83,327.3,255,315.57,255m-27.7-33.14C289.5,207.48,299.82,197,314.16,197c16.29,0,24.22,10.86,26,24.87ZM353.05,244c4.34,9.67,12.71,16.3,26.94,16.3,13.14,0,22.59-6.63,22.59-18.36,0-12.71-10.53-16.84-23.68-21.18-9.23-3-15.42-5.11-15.42-13.15,0-6.62,5.32-10.75,13.36-10.75,7.82,0,12.38,3.47,15.42,8.91l5.11-2.72c-3.69-6.95-10.1-11.51-20.53-11.51-11.52,0-19.34,6.51-19.34,16.07,0,11.08,7.61,14.78,20,18.9,11.95,3.92,18.9,7.17,18.9,15.65,0,8-6.84,12.71-16.4,12.71-10.54,0-18.14-4.89-21.62-13.15L353.05,244m61.05,40.74c4.78,11.52,16.29,19.55,32,19.55,19.11,0,31.28-12.92,31.28-32.69V193.25h-6.19v14.23c-5.54-10.32-15-15.86-26.72-15.86-19.34,0-33.57,15-33.57,34.33s14.23,34.33,33.57,34.33c11.73,0,21.18-5.54,26.72-15.86v26.72c0,16.84-9.45,27.38-25.09,27.38-12.17,0-22.38-5.76-26.51-15.86l-5.54,2.06M471.67,226c0,16.62-11.08,28.79-27.15,28.79S417.36,242.57,417.36,226s11.08-28.79,27.16-28.79,27.15,12.06,27.15,28.79M497,258.65h6.2V0H497ZM551.52,255c-15.43,0-27.38-10.54-27.92-27.81h58.77c-.44-21-12.93-35.53-32.27-35.53-18.14,0-32.91,15-32.91,34.33s14.23,34.33,34.33,34.33c12.49,0,21.61-4.56,27.59-12.17L575,244.42c-5.21,6.41-11.73,10.54-23.46,10.54m-27.81-33.14C525.34,207.48,535.66,197,550,197c16.29,0,24.22,10.86,26,24.87ZM596,258.65h6.19V221.39c0-15,10.1-24.23,24.11-24.23,12.39,0,19.56,6.63,19.56,21.84v39.65H652V217.91c0-18.14-11.3-26.29-25.53-26.29-10.64,0-20,5.33-24.22,14V193.25h-6.19v65.4Z"/></g></g></svg>